<svg xmlns="http://www.w3.org/2000/svg" width="640" height="220" viewBox="0 0 640 220" role="img" aria-label="双向链表插入示意图">
  <rect width="640" height="220" fill="#f7f9fd"/>
  <g fill="#ffffff" stroke="#9fb2d8" stroke-width="2">
    <rect x="70" y="78" width="140" height="64" rx="8"/>
    <rect x="280" y="78" width="140" height="64" rx="8"/>
    <rect x="280" y="152" width="140" height="48" rx="8" stroke="#f0b36a"/>
  </g>
  <g fill="#26344b" font-family="Arial, sans-serif" font-size="20" font-weight="700">
    <text x="129" y="116">q 前驱</text>
    <text x="340" y="116">q</text>
    <text x="342" y="183">p</text>
  </g>
  <g stroke="#255ce6" stroke-width="3" fill="none" marker-end="url(#arrow)">
    <path d="M210 96 C238 82 252 82 280 96"/>
    <path d="M280 126 C252 142 238 142 210 126"/>
  </g>
  <g stroke="#e07a1f" stroke-width="3" fill="none" stroke-dasharray="7 6" marker-end="url(#arrow-orange)">
    <path d="M350 152 C350 138 350 130 350 142"/>
    <path d="M420 176 C478 152 484 112 420 104"/>
    <path d="M280 176 C222 152 216 112 280 104"/>
  </g>
  <defs>
    <marker id="arrow" viewBox="0 0 10 10" refX="9" refY="5" markerWidth="7" markerHeight="7" orient="auto-start-reverse">
      <path d="M0 0 L10 5 L0 10 z" fill="#255ce6"/>
    </marker>
    <marker id="arrow-orange" viewBox="0 0 10 10" refX="9" refY="5" markerWidth="7" markerHeight="7" orient="auto-start-reverse">
      <path d="M0 0 L10 5 L0 10 z" fill="#e07a1f"/>
    </marker>
  </defs>
</svg>
